<?xml version="1.0" encoding="UTF-8"?>
<svg id="Layer_2" data-name="Layer 2" xmlns="http://www.w3.org/2000/svg" viewBox="0 0 410.93 346.74">
  <g id="Layer_1-2" data-name="Layer 1">
    <g>
      <path d="m51.21,231.3c.14-.48.25-.71.27-.94.56-6.47,2.68-12.44,5.93-17.99,2.52-4.31,6.49-6.15,11.44-5.97,3.12.11,6.24.36,9.36.29,10.97-.21,21.42-2.69,31.33-7.43,4.94-2.36,9.47-5.36,13.8-8.71,10.2-7.89,17.74-17.85,22.95-29.58,5.36-12.09,7.3-24.8,5.99-37.94-1.86-18.63-9.48-34.59-22.81-47.77-2.17-2.15-2.19-2.14-.76-4.87,3.47-6.59,6.94-13.18,10.37-19.79.16-.31.07-.99-.17-1.23-4.5-4.57-9.03-9.11-13.61-13.61-.41-.4-1.18-.62-1.79-.62-6.62-.06-13.25-.13-19.87-.04-3.13.04-5.54-1-7.74-3.26-6.59-6.78-13.34-13.41-20.03-20.1-1.34-1.34-2.56-2.72-2.64-4.79-.11-2.76,1.28-5.29,3.6-6.35,2.45-1.12,5.12-.71,7.14,1.29,6.28,6.22,12.53,12.46,18.73,18.74,1.15,1.17,2.27,1.74,4.01,1.7,6.5-.16,13-.1,19.5-.14,2.47-.02,4.48.88,6.25,2.62,4.35,4.31,8.77,8.54,13.26,12.89.92-1.4,2-3.05,3.08-4.71.32-.49.63-.98.9-1.5,1.06-2.05,2.81-2.74,5.04-2.8,6.52-.18,12.73,1.31,18.77,3.55,10.32,3.83,19.45,9.63,27.54,17.04,7.4,6.78,13.48,14.62,18.43,23.34,6.88,12.15,11.18,25.19,13.55,38.92,1.87,10.87,2.63,21.83,2.25,32.84-.22,6.44-.8,12.88-1.34,19.3-.18,2.09-.74,4.15-1.15,6.22-.48,2.44-.86,4.91-1.49,7.31-1.46,5.56-3.24,10.93-6.93,15.58-1.99,2.5-3.37,5.55-4.65,8.52-1.96,4.51-3.13,9.29-3.77,14.18-.96,7.3-.5,14.53,1.79,21.48,1.74,5.27,4.18,10.32,6.28,15.47,1.49,3.66,3.07,7.28,4.37,11.01,1.27,3.67,1.11,3.74-2.73,3.74-4.92,0-9.83,0-14.75.02-3.84.02-7.15,1.35-9.86,4.11-2.46,2.5-3.63,5.55-3.75,9-.09,2.5-.05,5-.08,7.5-.02,1.56-.15,1.69-1.72,1.69-7.67.01-15.33.05-23,0-2.44-.01-4.56.56-5.96,2.69-1.38,2.11-1.62,4.38-.31,6.6,3.67,6.2,7.38,12.37,11.13,18.52.58.95.6,1.53-.23,2.35-6.62,6.57-13.19,13.21-19.8,19.79-1.39,1.38-2.91,2.62-4.33,3.96-4.7,4.42-11.75,4.44-16.74-.2-4.66-4.34-9.14-8.88-13.65-13.39-18.71-18.7-37.38-37.44-56.13-56.11-5.36-5.34-9.7-11.34-12.19-18.5-.79-2.28-2.14-3.95-3.69-5.63-7.78-8.46-15.54-16.95-23.31-25.43-1.1-1.2-2.21-2.38-3.32-3.57-1.17-1.25-1.66-2.73-1.65-4.44.03-7.04,0-14.08.03-21.12,0-1.03-.29-1.83-1.03-2.56-5.65-5.61-11.28-11.23-16.89-16.87-1.23-1.24-2.54-2.46-3.48-3.9-1.79-2.75-.99-6.2,1.65-8.23,2.55-1.95,5.98-1.67,8.4.74,4.7,4.67,9.37,9.36,14.06,14.04,2.56,2.56,5.11,5.15,7.69,7.68,1.5,1.47,2.34,3.16,2.32,5.32-.05,7-.02,14-.07,21,0,1.07.28,1.88,1.02,2.67,4.73,5.1,9.4,10.25,14.1,15.38.27.3.59.55,1.06.98Zm129.72-40.42c3.2,0,6.02,0,8.84,0,4.5,0,8.99.11,13.49,0,5.36-.13,8.29-4.98,5.83-9.51-1.31-2.42-3.53-3.25-6.17-3.25-12.04.01-24.07,0-36.11,0-.54,0-1.08,0-1.62.03-2.66.17-4.59,1.47-5.61,3.91-1,2.4-.57,4.68,1.16,6.63,1.58,1.77,3.22,3.48,4.9,5.16,3.44,3.44,6.94,6.82,10.39,10.25,3.96,3.93,7.86,7.92,11.84,11.83,1.83,1.8,5.18,2.42,7.17,1.46,4.12-1.99,5.07-7.09,1.87-10.36-3.58-3.66-7.26-7.22-10.87-10.85-1.63-1.64-3.22-3.34-5.11-5.31Z"/>
      <path d="m186.19,302.18c4.89,0,9.5.05,14.12-.02,2.9-.04,5.58-.89,7.88-2.73,3.14-2.52,4.8-5.8,4.89-9.82.06-2.75.05-5.5-.03-8.25-.04-1.19.39-1.48,1.52-1.47,5.62.04,11.25.03,16.87,0,5.32-.03,9.39-2.37,12.02-6.96,1.82-3.16,1.65-6.65.98-10.1-1.28-6.56-4.23-12.5-6.96-18.52-2.31-5.07-4.63-10.12-5.54-15.71-1.62-9.97.43-19.19,5.51-27.8,1.01-1.71,2.48-3.16,3.41-4.91,1.43-2.67,2.73-5.43,3.79-8.27,1.13-3.02,1.93-6.17,2.92-9.45h15.95c0-1.24-.09-2.35.02-3.44.19-1.99,1.44-3.34,3.05-4.31,3.1-1.87,6.23-3.69,9.38-5.48.71-.4.92-.83.93-1.66.06-4.07.27-8.14.34-12.21,0-.45-.4-1.09-.8-1.33-2.7-1.64-5.46-3.19-8.18-4.8-2.42-1.43-3.63-3.54-3.16-6.37.16-1,.58-2,1.08-2.89,4.01-7,8.08-13.98,12.12-20.97,1.54-2.67,3.11-5.32,4.55-8.04,1.88-3.55,5.82-5.09,9.49-2.87,2.99,1.81,6.06,3.49,9.06,5.27.75.45,1.27.35,2.03-.08,3.47-1.96,6.99-3.83,10.53-5.66.66-.34.92-.64.91-1.38-.04-3.17-.03-6.33-.02-9.5.01-3.8,2.72-6.58,6.51-6.59,11.58-.02,23.16-.01,34.74.03,3.71.01,6.4,2.67,6.47,6.36.06,3.54.05,7.08-.02,10.62-.02,1.04.4,1.5,1.26,2.01,3.29,1.94,6.53,3.97,9.72,6.07.83.55,1.38.65,2.22.14,2.71-1.63,5.42-3.26,8.2-4.76,3.27-1.77,6.83-.66,8.69,2.56,5.64,9.77,11.25,19.55,16.94,29.29,1.3,2.23,1.97,4.48.6,6.82-.62,1.06-1.58,2.07-2.62,2.72-2.85,1.8-5.8,3.42-8.76,5.05-1.02.56-1.38,1.12-1.35,2.41.08,3.57-.13,7.15-.36,10.71-.13,2-.23,1.97,1.49,2.93,2.47,1.39,4.93,2.77,7.36,4.23,3.39,2.04,4.3,5.64,2.34,9.06-5.58,9.71-11.16,19.41-16.76,29.1-.95,1.65-2.1,3.12-4,3.77-1.94.67-3.77.4-5.51-.63-3.12-1.84-6.23-3.69-9.37-5.48-.32-.18-.91-.21-1.23-.04-3.86,2.03-7.7,4.09-11.52,6.21-.3.16-.46.8-.46,1.23-.06,3.41.05,6.83-.12,10.24-.16,3.22-2.84,5.56-6.08,5.59-1.75.01-3.5.06-5.25-.02-.99-.04-1.27.27-1.26,1.26.02,12.96,0,25.91,0,38.87,0,19.62,0,39.24,0,58.87,0,4.64-3.96,8.97-8.62,9.06-8.33.17-16.66.16-24.99.16-41.83.02-83.65.01-125.48.01-.54,0-1.08-.02-1.62-.01-1.49.01-2.74-.49-3.35-1.92-.63-1.48-.37-2.86.79-4.02,2.98-2.97,5.98-5.92,8.96-8.89.62-.62,1.22-1.25,1.78-1.93,1.87-2.28,2.07-4.59.56-7.15-2.56-4.33-5.18-8.64-7.77-12.95-.21-.35-.41-.71-.76-1.31Zm93.91-165.09c2.69,1.59,5.23,3.01,7.68,4.58,2.6,1.66,3.51,4.13,2.86,7.12-.32,1.46-.71,2.92-.85,4.4-.42,4.49-.45,8.98.22,13.45.46,3.06-.57,5.23-3.15,6.75-2.47,1.46-4.95,2.9-7.46,4.3-.72.4-.85.77-.45,1.47,3.35,5.8,6.69,11.61,10.02,17.43.37.65.79.75,1.42.38,1.08-.63,2.17-1.23,3.27-1.82,1.64-.89,3.22-1.99,4.96-2.59,2.74-.95,4.96.25,7,2.14,3.98,3.68,8.5,6.55,13.55,8.55,4.14,1.63,5.39,3.51,5.27,7.97-.07,2.7-.01,5.4-.01,8.21.58.04,1.11.1,1.64.1,6.5.01,13,0,19.5.05.94,0,1.15-.34,1.14-1.15-.03-2.5-.04-5-.03-7.5.02-3.03,1.83-5.37,4.68-6.35,2.24-.77,4.55-1.48,6.59-2.63,3.22-1.81,6.29-3.89,9.33-5.99,2.27-1.57,4.53-1.99,7.01-.68.81.43,1.62.85,2.41,1.31,1.76,1.03,3.5,2.09,5.27,3.11.62.35,1.22.69,1.76-.26,2.55-4.53,5.15-9.04,7.73-13.55.91-1.58,1.81-3.17,2.75-4.81-2.6-1.52-5.12-2.96-7.61-4.47-2.35-1.43-3.61-3.56-3.04-6.31,1.33-6.43,1.67-12.85.6-19.35-.42-2.53.78-4.53,2.86-5.98.58-.4,1.2-.75,1.82-1.09,2.3-1.3,4.61-2.6,7-3.94-3.77-6.53-7.48-12.95-11.15-19.31-2.64,1.53-5.03,2.94-7.46,4.31-2.66,1.5-5.57,1.31-7.75-.75-4.58-4.33-9.83-7.5-15.65-9.84-2.67-1.07-3.97-3.18-3.98-6.06,0-2.79-.02-5.58.03-8.37.02-.91-.25-1.25-1.2-1.24-6.62.03-13.25.03-19.87,0-.92,0-1.24.27-1.22,1.21.06,2.46-.09,4.92.05,7.37.17,2.92-2.33,5.78-4.92,6.46-1.56.41-3.08,1.01-4.57,1.65-3.99,1.73-7.66,4.01-11.03,6.76-2.39,1.95-4.98,2.1-7.66.54-2.34-1.36-4.71-2.67-7.01-4.08-.93-.57-1.43-.45-1.97.5-1.93,3.4-3.93,6.76-5.89,10.15-1.49,2.59-2.95,5.2-4.48,7.89Zm1.52,168.33h0c-15.37,0-30.74,0-46.11,0-3.13,0-6.05,2.33-6.48,5.17-.49,3.27,1.43,6.3,4.65,7.15,1.11.29,2.3.32,3.46.32,10.12.01,20.24-.02,30.37-.02,19.83,0,39.66.01,59.49.04,2.86,0,5.06-1.12,6.3-3.68,2.22-4.59-1.58-9.07-5.94-9.03-15.25.12-30.49.05-45.74.05Zm17.47-25.51c4.66,0,9.33,0,13.99,0,4.66,0,9.33-.02,13.99.01,2.8.02,4.98-1.06,6.2-3.6,2.15-4.48-1.04-9.13-6.19-9.13-17.7,0-35.39,0-53.09,0-1.58,0-3.17.02-4.73.21-2.7.33-4.3,2.07-5.05,4.57-.64,2.15-.06,4.07,1.4,5.78,1.54,1.79,3.55,2.16,5.75,2.15,9.24-.01,18.49,0,27.73,0Zm-22.58-50.93c0,.05,0,.11,0,.16-4.33,0-8.66-.04-12.99.01-2.74.03-4.61,1.56-5.46,4.02-.88,2.55-.44,4.86,1.45,6.67,1.26,1.2,2.72,1.85,4.49,1.84,7.62-.01,15.24.01,22.86,0,1.25,0,2.5-.05,3.74-.14,3.03-.22,5.36-3.61,5.19-6.49-.2-3.28-3.04-6.09-6.16-6.09-4.37,0-8.74,0-13.12,0Z"/>
      <path d="m28.06,114.32c5.8-15.85,16.51-26.5,32.42-32.29-.75-.67-1.42-1.21-2.03-1.82-7.01-7.01-13.99-14.05-21.04-21.03-2.15-2.12-3-4.56-1.95-7.36,1.66-4.45,7.25-5.37,10.69-1.91,9.55,9.59,19.14,19.16,28.69,28.75.73.74,1.49,1.03,2.54,1.02,9.39-.1,17.97,2.69,25.86,7.62,12.33,7.7,20.01,18.81,22.98,32.96,2.82,13.48.38,26.17-7.14,37.76-6.99,10.77-16.73,17.96-29.1,21.44-7.27,2.04-14.65,2.48-22.13,1.1-16.62-3.06-28.85-12.1-36.73-27-3.74-7.07-5.61-14.65-5.58-22.68,0-.57-.39-1.26-.81-1.69-7.48-7.54-15.02-15.03-22.5-22.57-3.27-3.3-2.83-7.69.93-10.28,1.79-1.23,5.04-1.23,6.7.17,1.62,1.37,3.14,2.86,4.64,4.36,4.15,4.15,8.27,8.34,12.41,12.51.31.31.69.55,1.16.92Z"/>
      <path d="m337.05,184.43c-13.26.25-25.31-10.9-25.36-25.32-.05-14.27,11.98-26.05,26.5-25.49,13.14.52,24.86,11.55,24.4,26.44-.43,13.8-12.43,24.77-25.54,24.37Z"/>
    </g>
  </g>
</svg>